<?xml version="1.0" encoding="UTF-8" standalone="no"?>
<svg
   xmlns:dc="http://purl.org/dc/elements/1.1/"
   xmlns:cc="http://creativecommons.org/ns#"
   xmlns:rdf="http://www.w3.org/1999/02/22-rdf-syntax-ns#"
   xmlns:svg="http://www.w3.org/2000/svg"
   xmlns="http://www.w3.org/2000/svg"
   xmlns:sodipodi="http://sodipodi.sourceforge.net/DTD/sodipodi-0.dtd"
   xmlns:inkscape="http://www.inkscape.org/namespaces/inkscape"
   version="1.1"
   x="0px"
   y="0px"
   viewBox="0 0 90 112.5"
   enable-background="new 0 0 90 90"
   xml:space="preserve"
   id="svg3783"
   sodipodi:docname="revision.svg"
   inkscape:version="0.92.3 (2405546, 2018-03-11)"><metadata
     id="metadata3789"><rdf:RDF><cc:Work
         rdf:about=""><dc:format>image/svg+xml</dc:format><dc:type
           rdf:resource="http://purl.org/dc/dcmitype/StillImage" /><dc:title></dc:title></cc:Work></rdf:RDF></metadata><defs
     id="defs3787" /><sodipodi:namedview
     pagecolor="#ffffff"
     bordercolor="#666666"
     borderopacity="1"
     objecttolerance="10"
     gridtolerance="10"
     guidetolerance="10"
     inkscape:pageopacity="0"
     inkscape:pageshadow="2"
     inkscape:window-width="1920"
     inkscape:window-height="1027"
     id="namedview3785"
     showgrid="false"
     inkscape:zoom="5.3928677"
     inkscape:cx="39.016177"
     inkscape:cy="66.891386"
     inkscape:window-x="-8"
     inkscape:window-y="-8"
     inkscape:window-maximized="1"
     inkscape:current-layer="svg3783" /><path
     fill-rule="evenodd"
     clip-rule="evenodd"
     d="M39.375,81.563c-18.638,0-33.75-15.111-33.75-33.75  c0-18.64,15.112-33.75,33.75-33.75V8.438C17.627,8.438,0,26.066,0,47.813C0,69.56,17.627,87.188,39.375,87.188  c21.747,0,39.375-17.628,39.375-39.375h-5.625C73.125,66.451,58.014,81.563,39.375,81.563z"
     id="path3769" /><path
     fill-rule="evenodd"
     clip-rule="evenodd"
     d="M73.125,42.188l-11.25,11.25H90L75.938,39.375L73.125,42.188z"
     id="path3777" /><path
     inkscape:connector-curvature="0"
     d="M 24.845698,51.94345 26.485268,62.405283 37.438395,60.688719 64.907179,24.770577 52.31448,16.025308 Z M 72.109665,15.352617 c 0.968604,-1.266553 0.693156,-3.024141 -0.616478,-3.93365 L 63.635339,5.9619195 c -1.309634,-0.90951 -3.14976,-0.621127 -4.118373,0.645428 l -4.545014,5.9430585 12.592698,8.745267 z"
     id="path3803"
     style="stroke-width:2.88941932" /></svg>