<?xml version="1.0" encoding="UTF-8"?>
<svg width="349px" height="107px" viewBox="0 0 349 107" version="1.1" xmlns="http://www.w3.org/2000/svg" xmlns:xlink="http://www.w3.org/1999/xlink">
    <!-- Generator: Sketch 46 (44423) - http://www.bohemiancoding.com/sketch -->
    <title>Subspedia</title>
    <desc>Created with Sketch.</desc>
    <defs></defs>
    <g id="Page-1" stroke="none" stroke-width="1" fill="none" fill-rule="evenodd">
        <g id="Leaderboard" transform="translate(-198.000000, -63.000000)" fill="#FFFFFF">
            <path d="M204.021484,151 L206.326172,151 L206.326172,136 L204.021484,136 L204.021484,151 Z M221.033203,140.462891 C219.666016,140.462891 218.591797,141.078125 217.927734,142.132812 L217.927734,140.658203 L215.75,140.658203 L215.75,151 L217.927734,151 L217.927734,145.091797 C217.9375,143.255859 219.001953,142.347656 220.398438,142.347656 C221.736328,142.347656 222.712891,143.021484 222.712891,145.023438 L222.712891,151 L224.890625,151 L224.890625,144.710938 C224.890625,141.888672 223.289062,140.462891 221.033203,140.462891 Z M232.556641,151.195312 C229.451172,151.195312 227.029297,148.871094 227.029297,145.824219 C227.029297,142.787109 229.451172,140.462891 232.556641,140.462891 C235.662109,140.462891 238.083984,142.787109 238.083984,145.824219 C238.083984,148.871094 235.662109,151.195312 232.556641,151.195312 Z M232.546875,149.242188 C234.441406,149.242188 235.964844,147.757812 235.964844,145.824219 C235.964844,143.900391 234.441406,142.416016 232.546875,142.416016 C230.652344,142.416016 229.138672,143.890625 229.138672,145.824219 C229.138672,147.777344 230.652344,149.242188 232.546875,149.242188 Z M243.5625,151.195312 C245.818359,151.195312 247.439453,150.0625 247.439453,147.943359 C247.439453,145.882812 245.867188,145.277344 244.431641,144.837891 C243.181641,144.457031 242.009766,144.203125 242.009766,143.314453 C242.009766,142.591797 242.664062,142.191406 243.591797,142.191406 C244.353516,142.191406 245.310547,142.474609 246.101562,143.050781 L247.175781,141.517578 C246.179688,140.84375 244.939453,140.462891 243.699219,140.462891 C241.6875,140.462891 239.929688,141.478516 239.929688,143.519531 C239.929688,145.550781 241.619141,146.078125 243.09375,146.537109 C244.275391,146.898438 245.300781,147.181641 245.300781,148.109375 C245.300781,148.939453 244.607422,149.398438 243.572266,149.398438 C242.46875,149.398438 241.248047,148.851562 240.476562,148.1875 L239.431641,149.847656 C240.417969,150.570312 241.863281,151.195312 243.5625,151.195312 Z M254.96875,142.328125 L254.96875,140.658203 L252.419922,140.658203 L252.419922,137.796875 L250.242188,137.796875 L250.242188,140.658203 L248.552734,140.658203 L248.552734,142.328125 L250.242188,142.328125 L250.242188,147.972656 C250.242188,149.935547 251.492188,151 253.386719,151 L254.949219,151 L254.949219,149.251953 L253.826172,149.251953 C252.996094,149.251953 252.419922,148.724609 252.419922,147.71875 L252.419922,142.328125 L254.96875,142.328125 Z M259.470703,142.494141 L259.470703,140.658203 L257.351562,140.658203 L257.351562,151 L259.529297,151 L259.529297,145.697266 C259.529297,143.412109 260.945312,142.640625 263.054688,142.640625 L263.054688,140.560547 C261.316406,140.609375 260.076172,141.46875 259.470703,142.494141 Z M266.091797,138.509766 C266.824219,138.509766 267.449219,137.904297 267.449219,137.162109 C267.449219,136.390625 266.824219,135.804688 266.091797,135.804688 C265.349609,135.804688 264.724609,136.390625 264.724609,137.162109 C264.724609,137.904297 265.349609,138.509766 266.091797,138.509766 Z M264.988281,151 L267.15625,151 L267.15625,140.658203 L264.988281,140.658203 L264.988281,151 Z M279.255859,151.195312 C281.511719,151.195312 283.132812,150.0625 283.132812,147.943359 C283.132812,145.882812 281.560547,145.277344 280.125,144.837891 C278.875,144.457031 277.703125,144.203125 277.703125,143.314453 C277.703125,142.591797 278.357422,142.191406 279.285156,142.191406 C280.046875,142.191406 281.003906,142.474609 281.794922,143.050781 L282.869141,141.517578 C281.873047,140.84375 280.632812,140.462891 279.392578,140.462891 C277.380859,140.462891 275.623047,141.478516 275.623047,143.519531 C275.623047,145.550781 277.3125,146.078125 278.787109,146.537109 C279.96875,146.898438 280.994141,147.181641 280.994141,148.109375 C280.994141,148.939453 280.300781,149.398438 279.265625,149.398438 C278.162109,149.398438 276.941406,148.851562 276.169922,148.1875 L275.125,149.847656 C276.111328,150.570312 277.556641,151.195312 279.255859,151.195312 Z M290.193359,151.195312 C287.087891,151.195312 284.666016,148.871094 284.666016,145.824219 C284.666016,142.787109 287.087891,140.462891 290.193359,140.462891 C293.298828,140.462891 295.720703,142.787109 295.720703,145.824219 C295.720703,148.871094 293.298828,151.195312 290.193359,151.195312 Z M290.183594,149.242188 C292.078125,149.242188 293.601562,147.757812 293.601562,145.824219 C293.601562,143.900391 292.078125,142.416016 290.183594,142.416016 C288.289062,142.416016 286.775391,143.890625 286.775391,145.824219 C286.775391,147.777344 288.289062,149.242188 290.183594,149.242188 Z M303.220703,142.328125 L303.220703,140.658203 L300.671875,140.658203 L300.671875,137.796875 L298.494141,137.796875 L298.494141,140.658203 L296.804688,140.658203 L296.804688,142.328125 L298.494141,142.328125 L298.494141,147.972656 C298.494141,149.935547 299.744141,151 301.638672,151 L303.201172,151 L303.201172,149.251953 L302.078125,149.251953 C301.248047,149.251953 300.671875,148.724609 300.671875,147.71875 L300.671875,142.328125 L303.220703,142.328125 Z M310.720703,142.328125 L310.720703,140.658203 L308.171875,140.658203 L308.171875,137.796875 L305.994141,137.796875 L305.994141,140.658203 L304.304688,140.658203 L304.304688,142.328125 L305.994141,142.328125 L305.994141,147.972656 C305.994141,149.935547 307.244141,151 309.138672,151 L310.701172,151 L310.701172,149.251953 L309.578125,149.251953 C308.748047,149.251953 308.171875,148.724609 308.171875,147.71875 L308.171875,142.328125 L310.720703,142.328125 Z M317.595703,151.195312 C314.490234,151.195312 312.068359,148.871094 312.068359,145.824219 C312.068359,142.787109 314.490234,140.462891 317.595703,140.462891 C320.701172,140.462891 323.123047,142.787109 323.123047,145.824219 C323.123047,148.871094 320.701172,151.195312 317.595703,151.195312 Z M317.585938,149.242188 C319.480469,149.242188 321.003906,147.757812 321.003906,145.824219 C321.003906,143.900391 319.480469,142.416016 317.585938,142.416016 C315.691406,142.416016 314.177734,143.890625 314.177734,145.824219 C314.177734,147.777344 315.691406,149.242188 317.585938,149.242188 Z M330.623047,142.328125 L330.623047,140.658203 L328.074219,140.658203 L328.074219,137.796875 L325.896484,137.796875 L325.896484,140.658203 L324.207031,140.658203 L324.207031,142.328125 L325.896484,142.328125 L325.896484,147.972656 C325.896484,149.935547 327.146484,151 329.041016,151 L330.603516,151 L330.603516,149.251953 L329.480469,149.251953 C328.650391,149.251953 328.074219,148.724609 328.074219,147.71875 L328.074219,142.328125 L330.623047,142.328125 Z M334.109375,138.509766 C334.841797,138.509766 335.466797,137.904297 335.466797,137.162109 C335.466797,136.390625 334.841797,135.804688 334.109375,135.804688 C333.367188,135.804688 332.742188,136.390625 332.742188,137.162109 C332.742188,137.904297 333.367188,138.509766 334.109375,138.509766 Z M333.005859,151 L335.173828,151 L335.173828,140.658203 L333.005859,140.658203 L333.005859,151 Z M343.552734,142.328125 L343.552734,140.658203 L341.003906,140.658203 L341.003906,137.796875 L338.826172,137.796875 L338.826172,140.658203 L337.136719,140.658203 L337.136719,142.328125 L338.826172,142.328125 L338.826172,147.972656 C338.826172,149.935547 340.076172,151 341.970703,151 L343.533203,151 L343.533203,149.251953 L342.410156,149.251953 C341.580078,149.251953 341.003906,148.724609 341.003906,147.71875 L341.003906,142.328125 L343.552734,142.328125 Z M350.427734,151.195312 C347.322266,151.195312 344.900391,148.871094 344.900391,145.824219 C344.900391,142.787109 347.322266,140.462891 350.427734,140.462891 C353.533203,140.462891 355.955078,142.787109 355.955078,145.824219 C355.955078,148.871094 353.533203,151.195312 350.427734,151.195312 Z M350.417969,149.242188 C352.3125,149.242188 353.835938,147.757812 353.835938,145.824219 C353.835938,143.900391 352.3125,142.416016 350.417969,142.416016 C348.523438,142.416016 347.009766,143.890625 347.009766,145.824219 C347.009766,147.777344 348.523438,149.242188 350.417969,149.242188 Z M358.337891,151 L360.515625,151 L360.515625,136 L358.337891,136 L358.337891,151 Z M364.880859,138.509766 C365.613281,138.509766 366.238281,137.904297 366.238281,137.162109 C366.238281,136.390625 365.613281,135.804688 364.880859,135.804688 C364.138672,135.804688 363.513672,136.390625 363.513672,137.162109 C363.513672,137.904297 364.138672,138.509766 364.880859,138.509766 Z M363.777344,151 L365.945312,151 L365.945312,140.658203 L363.777344,140.658203 L363.777344,151 Z M396.335938,145.707031 L396.316406,146.136719 L387.654297,146.136719 C387.751953,148.060547 389.236328,149.378906 391.033203,149.378906 C392.234375,149.378906 393.318359,148.802734 393.953125,147.777344 L395.720703,148.529297 C394.832031,150.179688 393.123047,151.195312 391.042969,151.195312 C387.859375,151.195312 385.554688,148.8125 385.554688,145.824219 C385.554688,142.845703 387.898438,140.453125 390.994141,140.453125 C393.953125,140.453125 396.267578,142.640625 396.335938,145.707031 Z M391.003906,142.181641 C389.421875,142.181641 388.181641,143.158203 387.78125,144.652344 L394.099609,144.652344 C393.787109,143.148438 392.556641,142.181641 391.003906,142.181641 Z M400.730469,142.494141 L400.730469,140.658203 L398.611328,140.658203 L398.611328,151 L400.789062,151 L400.789062,145.697266 C400.789062,143.412109 402.205078,142.640625 404.314453,142.640625 L404.314453,140.560547 C402.576172,140.609375 401.335938,141.46875 400.730469,142.494141 Z M413.09375,138.509766 C413.826172,138.509766 414.451172,137.904297 414.451172,137.162109 C414.451172,136.390625 413.826172,135.804688 413.09375,135.804688 C412.351562,135.804688 411.726562,136.390625 411.726562,137.162109 C411.726562,137.904297 412.351562,138.509766 413.09375,138.509766 Z M411.990234,151 L414.158203,151 L414.158203,140.658203 L411.990234,140.658203 L411.990234,151 Z M428.279297,142.328125 L428.279297,140.658203 L425.730469,140.658203 L425.730469,137.796875 L423.552734,137.796875 L423.552734,140.658203 L421.863281,140.658203 L421.863281,142.328125 L423.552734,142.328125 L423.552734,147.972656 C423.552734,149.935547 424.802734,151 426.697266,151 L428.259766,151 L428.259766,149.251953 L427.136719,149.251953 C426.306641,149.251953 425.730469,148.724609 425.730469,147.71875 L425.730469,142.328125 L428.279297,142.328125 Z M434.841797,151.195312 C437.556641,151.195312 439.285156,149.759766 439.285156,147.328125 L439.285156,140.658203 L437.136719,140.658203 L437.136719,147.220703 C437.136719,148.617188 436.160156,149.251953 434.841797,149.251953 C433.533203,149.251953 432.546875,148.617188 432.546875,147.220703 L432.546875,140.658203 L430.398438,140.658203 L430.398438,147.328125 C430.398438,149.759766 432.126953,151.195312 434.841797,151.195312 Z M446.941406,151.195312 C443.835938,151.195312 441.414062,148.871094 441.414062,145.824219 C441.414062,142.787109 443.835938,140.462891 446.941406,140.462891 C450.046875,140.462891 452.46875,142.787109 452.46875,145.824219 C452.46875,148.871094 450.046875,151.195312 446.941406,151.195312 Z M446.931641,149.242188 C448.826172,149.242188 450.349609,147.757812 450.349609,145.824219 C450.349609,143.900391 448.826172,142.416016 446.931641,142.416016 C445.037109,142.416016 443.523438,143.890625 443.523438,145.824219 C443.523438,147.777344 445.037109,149.242188 446.931641,149.242188 Z M455.955078,138.509766 C456.6875,138.509766 457.3125,137.904297 457.3125,137.162109 C457.3125,136.390625 456.6875,135.804688 455.955078,135.804688 C455.212891,135.804688 454.587891,136.390625 454.587891,137.162109 C454.587891,137.904297 455.212891,138.509766 455.955078,138.509766 Z M454.851562,151 L457.019531,151 L457.019531,140.658203 L454.851562,140.658203 L454.851562,151 Z M471.140625,142.328125 L471.140625,140.658203 L468.591797,140.658203 L468.591797,137.796875 L466.414062,137.796875 L466.414062,140.658203 L464.724609,140.658203 L464.724609,142.328125 L466.414062,142.328125 L466.414062,147.972656 C466.414062,149.935547 467.664062,151 469.558594,151 L471.121094,151 L471.121094,149.251953 L469.998047,149.251953 C469.167969,149.251953 468.591797,148.724609 468.591797,147.71875 L468.591797,142.328125 L471.140625,142.328125 Z M483.269531,145.707031 L483.25,146.136719 L474.587891,146.136719 C474.685547,148.060547 476.169922,149.378906 477.966797,149.378906 C479.167969,149.378906 480.251953,148.802734 480.886719,147.777344 L482.654297,148.529297 C481.765625,150.179688 480.056641,151.195312 477.976562,151.195312 C474.792969,151.195312 472.488281,148.8125 472.488281,145.824219 C472.488281,142.845703 474.832031,140.453125 477.927734,140.453125 C480.886719,140.453125 483.201172,142.640625 483.269531,145.707031 Z M477.9375,142.181641 C476.355469,142.181641 475.115234,143.158203 474.714844,144.652344 L481.033203,144.652344 C480.720703,143.148438 479.490234,142.181641 477.9375,142.181641 Z M485.544922,151 L487.722656,151 L487.722656,136 L485.544922,136 L485.544922,151 Z M500.886719,145.707031 L500.867188,146.136719 L492.205078,146.136719 C492.302734,148.060547 493.787109,149.378906 495.583984,149.378906 C496.785156,149.378906 497.869141,148.802734 498.503906,147.777344 L500.271484,148.529297 C499.382812,150.179688 497.673828,151.195312 495.59375,151.195312 C492.410156,151.195312 490.105469,148.8125 490.105469,145.824219 C490.105469,142.845703 492.449219,140.453125 495.544922,140.453125 C498.503906,140.453125 500.818359,142.640625 500.886719,145.707031 Z M495.554688,142.181641 C493.972656,142.181641 492.732422,143.158203 492.332031,144.652344 L498.650391,144.652344 C498.337891,143.148438 497.107422,142.181641 495.554688,142.181641 Z M505.759766,139.222656 C505.759766,138.158203 506.316406,137.611328 507.195312,137.611328 C507.527344,137.611328 507.898438,137.689453 508.289062,137.835938 L508.289062,136.048828 C507.722656,135.882812 507.175781,135.804688 506.707031,135.804688 C504.734375,135.804688 503.582031,137.005859 503.582031,139.154297 L503.582031,140.658203 L501.892578,140.658203 L501.892578,142.328125 L503.582031,142.328125 L503.582031,151 L505.759766,151 L505.759766,142.328125 L508.308594,142.328125 L508.308594,140.658203 L505.759766,140.658203 L505.759766,139.222656 Z M511.296875,138.509766 C512.029297,138.509766 512.654297,137.904297 512.654297,137.162109 C512.654297,136.390625 512.029297,135.804688 511.296875,135.804688 C510.554688,135.804688 509.929688,136.390625 509.929688,137.162109 C509.929688,137.904297 510.554688,138.509766 511.296875,138.509766 Z M510.193359,151 L512.361328,151 L512.361328,140.658203 L510.193359,140.658203 L510.193359,151 Z M515.623047,151 L517.800781,151 L517.800781,136 L515.623047,136 L515.623047,151 Z M532.087891,140.462891 C530.769531,140.462891 529.705078,141.078125 529.041016,142.103516 C528.503906,140.960938 527.439453,140.462891 526.169922,140.462891 C524.861328,140.462891 523.855469,141.087891 523.240234,142.103516 L523.240234,140.658203 L521.0625,140.658203 L521.0625,151 L523.240234,151 L523.240234,144.691406 C523.240234,143.1875 524.050781,142.376953 525.291016,142.376953 C526.375,142.376953 527.244141,143.001953 527.244141,144.613281 L527.244141,151 L529.421875,151 L529.421875,144.691406 C529.421875,143.1875 530.251953,142.376953 531.482422,142.376953 C532.556641,142.376953 533.435547,143.001953 533.435547,144.613281 L533.435547,151 L535.603516,151 L535.603516,143.929688 C535.603516,141.849609 534.177734,140.462891 532.087891,140.462891 Z" id="I-nostri-sottotitoli"></path>
            <path d="M202.718004,119.687882 C202.813801,121.124845 203.508322,122.262423 204.801589,123.100651 C206.094855,123.938879 207.699439,124.501681 209.615388,124.789073 C211.531338,125.076466 213.6628,125.124364 216.009839,124.932769 C218.356878,124.741174 220.655983,124.369964 222.907224,123.819128 C225.158465,123.268293 227.242029,122.561797 229.157979,121.699619 C231.073929,120.837442 232.570742,119.879481 233.648464,118.825709 C234.726186,117.771937 235.253064,116.634358 235.229115,115.41294 C235.205165,114.191522 234.402873,112.958148 232.822215,111.712781 C228.607125,110.132122 224.487895,108.71913 220.4644,107.473763 C216.440905,106.228396 212.824604,104.9112 209.615388,103.522136 C206.406172,102.133073 203.759806,100.516514 201.676211,98.6724125 C199.592616,96.8283108 198.38319,94.517231 198.047899,91.7391038 C197.856304,90.2542426 198.239488,88.5418882 199.197463,86.601989 C200.155438,84.6620898 201.520532,82.7102451 203.292786,80.7463966 C205.065039,78.782548 207.148603,76.8786014 209.543541,75.0344997 C211.938478,73.190398 214.465099,71.6217376 217.123479,70.3284715 C219.78186,69.0352053 222.488098,68.1011938 225.242276,67.5264088 C227.996454,66.9516239 230.618871,66.9276749 233.109606,67.4545611 C234.067581,67.5024598 234.786051,67.9814401 235.265039,68.8915163 C235.744026,69.8015924 235.983516,70.759553 235.983516,71.7654266 C235.935617,71.8612241 235.827847,71.9929437 235.660201,72.1605893 C235.492556,72.3282349 235.360836,72.4360055 235.265039,72.4839042 C233.013797,71.7654231 230.678769,71.5139584 228.259882,71.7295028 C225.840995,71.9450471 223.482017,72.4719254 221.182878,73.3101535 C218.883738,74.1483815 216.680429,75.2739852 214.572884,76.6869982 C212.465339,78.1000112 210.621265,79.632748 209.040606,81.2852548 C207.459948,82.9377615 206.202625,84.6860395 205.268599,86.5301412 C204.334573,88.3742429 203.843619,90.1584444 203.79572,91.8827993 C204.083112,93.9424453 205.088971,95.6667743 206.813326,97.055838 C208.537681,98.4449016 210.633219,99.6663013 213.100005,100.720074 C215.56679,101.773846 218.201182,102.695883 221.003258,103.486212 C223.805335,104.276542 226.451701,105.078834 228.942436,105.893112 C231.43317,106.707391 233.564633,107.593505 235.336886,108.551479 C237.10914,109.509454 238.186846,110.659007 238.570035,112.000172 C239.575909,114.059818 239.839348,115.987714 239.360361,117.783917 C238.881373,119.58012 237.899464,121.196678 236.414603,122.63364 C234.929742,124.070603 233.061719,125.315951 230.810477,126.369724 C228.559236,127.423496 226.140386,128.249737 223.553854,128.848471 C220.967321,129.447206 218.33293,129.806441 215.6506,129.926188 C212.96827,130.045935 210.465599,129.890266 208.142509,129.459177 C205.81942,129.028089 203.807703,128.297644 202.107298,127.267821 C200.406892,126.237998 199.245365,124.884878 198.622681,123.208422 C198.335289,122.729435 198.287391,122.202557 198.478986,121.627772 C198.670581,121.052987 198.981918,120.550057 199.413007,120.118969 C199.844095,119.68788 200.33505,119.412466 200.885886,119.292719 C201.436721,119.172973 201.927676,119.328641 202.358765,119.75973 L202.50246,119.75973 C202.550359,119.75973 202.586283,119.747755 202.610232,119.723806 C202.634181,119.699857 202.670105,119.687882 202.718004,119.687882 Z M269.177181,111.569085 C269.033485,112.048073 268.710173,112.850365 268.207236,113.975985 C267.704299,115.101606 267.069651,116.358929 266.303271,117.747993 C265.536891,119.137056 264.650777,120.585972 263.644903,122.094782 C262.63903,123.603593 261.561324,124.944737 260.411754,126.118257 C259.262184,127.291776 258.052759,128.213813 256.783442,128.884395 C255.514126,129.554978 254.208904,129.794468 252.86774,129.602873 C250.424904,128.932291 248.520957,127.806687 247.155843,126.226028 C245.790728,124.64537 244.808819,122.765372 244.210085,120.585979 C243.61135,118.406586 243.288039,116.011685 243.24014,113.401203 C243.192241,110.790722 243.288037,108.108432 243.527531,105.354254 C243.767025,102.600076 244.054413,99.8339652 244.389704,97.055838 C244.724995,94.2777107 244.940536,91.6433192 245.036334,89.1525844 C245.275828,88.5299007 245.70691,88.0269714 246.329593,87.6437815 C246.952277,87.2605915 247.586926,87.0689994 248.233559,87.0689994 C248.880192,87.0689994 249.431019,87.272566 249.886058,87.6797054 C250.341096,88.0868447 250.544662,88.7454426 250.496764,89.6555187 C250.353067,91.6193673 250.113577,93.8705746 249.778286,96.4092081 C249.442995,98.9478416 249.131658,101.54631 248.844265,104.20469 C248.556873,106.86307 248.341331,109.461538 248.197635,112.000172 C248.053939,114.538805 248.113812,116.790013 248.377255,118.753861 C248.640698,120.71771 249.155602,122.28637 249.921981,123.45989 C250.688361,124.633409 251.837914,125.172262 253.370674,125.076464 C254.951333,124.83697 256.424197,124.106525 257.789311,122.885107 C259.154425,121.663689 260.399774,120.142927 261.525395,118.322775 C262.651015,116.502622 263.656874,114.490905 264.543,112.287563 C265.429127,110.084221 266.183521,107.868937 266.806205,105.641645 C267.428889,103.414354 267.895894,101.258942 268.207236,99.1753469 C268.518578,97.0917514 268.698196,95.2836009 268.746094,93.750841 C268.985588,92.5533724 269.165206,91.5235648 269.284953,90.6613874 C269.404699,89.7992099 269.608266,89.1166631 269.895659,88.6137262 C270.183051,88.1107894 270.614133,87.8114267 271.188918,87.7156292 C271.763703,87.6198317 272.625868,87.7156278 273.775438,88.0030203 C273.919134,91.4038312 273.967032,94.8165657 273.919133,98.241326 C273.871234,101.666086 274.002954,105.054872 274.314296,108.407784 C274.625638,111.760696 275.248312,115.029737 276.182338,118.215003 C277.116363,121.40027 278.613176,124.453769 280.672822,127.375592 C280.577025,127.758782 280.493203,128.153941 280.421355,128.56108 C280.349507,128.96822 280.217788,129.31548 280.026193,129.602873 C279.834598,129.890265 279.571159,130.117781 279.235867,130.285427 C278.900576,130.453072 278.421596,130.465047 277.798912,130.321351 C276.74514,130.321351 275.835077,129.962115 275.068697,129.243634 C274.302317,128.525153 273.631745,127.591141 273.05696,126.441572 C272.482175,125.292002 272.003195,123.998755 271.620005,122.561793 C271.236815,121.12483 270.901529,119.711838 270.614136,118.322775 C270.326744,116.933711 270.063305,115.640464 269.823811,114.442996 C269.584317,113.245527 269.368776,112.287567 269.177181,111.569085 Z M286.348795,128.597004 C285.151327,127.926422 284.46878,127.160053 284.301134,126.297876 C284.133489,125.435699 284.337055,124.286146 284.91184,122.849184 C286.731993,123.040779 288.85148,122.849186 291.270367,122.274402 C293.689254,121.699617 296.156002,120.825478 298.670686,119.651958 C301.18537,118.478439 303.664093,117.065447 306.106929,115.41294 C308.549765,113.760434 310.729126,111.952283 312.645075,109.988435 C314.561025,108.024586 316.105737,105.976945 317.279256,103.845451 C318.452775,101.713957 319.039526,99.5944693 319.039526,97.4869245 C319.039526,95.1877847 318.596469,93.6550478 317.710342,92.8886679 C316.824216,92.122288 315.303453,91.7391038 313.14801,91.7391038 C311.040465,91.5475088 309.064671,91.8348969 307.22057,92.6012769 C305.376468,93.3676568 303.640164,94.4214134 302.011607,95.7625783 C300.38305,97.1037432 298.886236,98.6724036 297.521122,100.468607 C296.156008,102.264809 294.898685,104.132833 293.749115,106.072732 C292.599545,108.012631 291.557763,109.928552 290.623737,111.820553 C289.689712,113.712553 288.863471,115.448856 288.144989,117.029515 C287.474407,118.131186 286.851733,118.981376 286.276948,119.580111 C285.702163,120.178845 285.235157,120.418335 284.875916,120.298588 C284.516676,120.178841 284.277186,119.616039 284.157439,118.610166 C284.037692,117.604292 284.097564,116.047606 284.337058,113.940061 C284.432856,112.646795 284.564575,110.910492 284.732221,108.731099 C284.899866,106.551706 285.079484,104.096932 285.271079,101.366704 C285.462674,98.636475 285.666241,95.7386444 285.881785,92.6731246 C286.097329,89.6076049 286.300896,86.5660802 286.492491,83.5484592 C286.684086,80.5308382 286.851729,77.621033 286.995425,74.8189564 C287.139122,72.0168798 287.234918,69.5381569 287.282816,67.3827133 C287.330715,67.0474221 287.426511,66.6283144 287.570207,66.1253775 C287.713904,65.6224407 287.905496,65.1434604 288.144989,64.6884223 C288.384483,64.2333843 288.671871,63.8382255 289.007163,63.5029343 C289.342454,63.1676431 289.725638,63 290.156727,63 C290.39622,63 290.695583,63.0359235 291.054824,63.1077716 C291.414064,63.1796198 291.593682,63.4071354 291.593682,63.7903254 C291.497884,66.9516426 291.330241,70.1129124 291.090748,73.2742296 C290.851254,76.4355468 290.599789,79.6327401 290.336346,82.8659055 C290.072903,86.0990708 289.833413,89.3561367 289.617869,92.6372008 C289.402324,95.9182648 289.270605,99.2831013 289.222706,102.731811 C291.186554,100.720064 292.98273,98.8640151 294.611288,97.1636096 C296.239845,95.4632041 297.916276,93.9424418 299.640631,92.6012769 C301.364986,91.260112 303.244983,90.1225338 305.28068,89.1885083 C307.316377,88.2544828 309.723253,87.5240378 312.50138,86.9971516 C316.189583,86.9971516 319.039516,87.8832651 321.051263,89.6555187 C323.063011,91.4277723 324.068869,94.277705 324.068869,98.2054021 C324.068869,100.983529 323.470144,103.605946 322.272675,106.072732 C321.075207,108.539517 319.494572,110.814673 317.530723,112.898269 C315.566874,114.981864 313.291718,116.873836 310.705186,118.574242 C308.118654,120.274647 305.42439,121.783435 302.622313,123.100651 C299.820236,124.417866 297.018202,125.54347 294.216125,126.477495 C291.414048,127.411521 288.791632,128.118017 286.348795,128.597004 Z M330.104081,126.657115 C330.343575,125.890735 330.726759,125.208188 331.253645,124.609454 C331.780531,124.010719 332.451104,123.711357 333.265382,123.711357 C333.983864,124.094547 334.953799,124.357986 336.175217,124.501682 C337.396635,124.645378 338.71383,124.681302 340.126843,124.609454 C341.539856,124.537606 343.024695,124.357988 344.581404,124.070595 C346.138114,123.783203 347.599004,123.423968 348.964118,122.992879 C350.329232,122.56179 351.574581,122.046887 352.700201,121.448152 C353.825822,120.849418 354.676012,120.19082 355.250797,119.472339 C350.700416,119.616035 346.808701,119.663933 343.575536,119.616034 C340.34237,119.568136 337.648106,119.2089 335.492663,118.538318 C333.337219,117.867736 331.660788,116.79003 330.46332,115.305169 C329.265851,113.820308 328.427636,111.736744 327.948648,109.054414 C327.948648,105.893097 328.667119,102.923419 330.104081,100.145292 C331.541043,97.3671644 333.456964,94.948314 335.851902,92.8886679 C338.246839,90.8290218 340.989001,89.2004889 344.07847,88.0030203 C347.167939,86.8055516 350.365133,86.2068263 353.670146,86.2068263 C354.149133,86.1589275 354.879578,86.2188001 355.861503,86.3864457 C356.843427,86.5540913 357.765464,86.8175304 358.627641,87.176771 C359.489819,87.5360116 360.112493,88.0030174 360.495683,88.5778023 C360.878873,89.1525873 360.71123,89.8231597 359.992749,90.5895396 C358.076799,90.3500459 356.065082,90.4458419 353.957537,90.8769306 C351.849992,91.3080194 349.778403,91.9666172 347.742706,92.852744 C345.707009,93.7388708 343.767139,94.8285509 341.923037,96.1218171 C340.078936,97.4150832 338.462377,98.780177 337.073314,100.217139 C335.68425,101.654102 334.606544,103.126966 333.840164,104.635777 C333.073784,106.144587 332.714549,107.581528 332.762448,108.946642 C332.810347,110.311756 333.361174,111.533156 334.414947,112.610878 C335.468719,113.6886 337.14515,114.53879 339.44429,115.161473 C340.97705,115.496765 342.665455,115.61651 344.509557,115.520712 C346.353658,115.424915 348.209707,115.269246 350.077758,115.053702 C351.945809,114.838157 353.741985,114.622616 355.46634,114.407072 C357.190695,114.191527 358.735406,114.143629 360.10052,114.263376 C361.465635,114.383123 362.555315,114.718409 363.369594,115.269245 C364.183872,115.820081 364.591005,116.742118 364.591005,118.035384 C363.824626,119.32865 362.591251,120.65782 360.890846,122.022934 C359.19044,123.388049 357.25057,124.645372 355.071177,125.794942 C352.891784,126.944512 350.56873,127.914447 348.101945,128.704776 C345.635159,129.495105 343.240258,129.98606 340.917169,130.177655 C338.59408,130.36925 336.474592,130.201607 334.558642,129.674721 C332.642692,129.147835 331.157853,128.141976 330.104081,126.657115 Z M378.529471,169.119141 C377.523597,168.400659 376.613535,167.382826 375.799256,166.065611 C374.984977,164.748395 374.446124,163.515021 374.182681,162.365451 C373.919238,161.215881 374.027009,160.317793 374.505996,159.67116 C374.984984,159.024527 375.990842,159.036502 377.523602,159.707084 C377.763096,157.599539 378.002586,155.204638 378.24208,152.522308 C378.481573,149.839978 378.661191,147.145714 378.780938,144.439435 C378.900685,141.733156 378.924634,139.122714 378.852786,136.608029 C378.780938,134.093345 378.577371,131.973858 378.24208,130.249503 C378.002586,130.105807 377.619402,129.866316 377.092516,129.531025 C376.565629,129.195734 375.990853,128.836499 375.368169,128.453309 C374.745486,128.070119 374.158735,127.710884 373.607899,127.375592 C373.057064,127.040301 372.685854,126.800811 372.494259,126.657115 C371.823677,126.178127 371.48839,125.639275 371.48839,125.04054 L371.48839,122.777336 C372.206872,122.777336 372.829546,122.861157 373.356432,123.028803 C373.883318,123.196449 374.386248,123.41199 374.865235,123.675433 C375.344222,123.938876 375.847152,124.21429 376.374038,124.501682 C376.900924,124.789075 377.523599,125.028565 378.24208,125.22016 L378.24208,98.6364887 C378.24208,98.013805 378.48157,97.5587737 378.960557,97.2713812 C379.439545,96.9839888 379.966423,96.8642437 380.541208,96.9121424 C381.115993,96.9600412 381.618922,97.1276843 382.050011,97.4150767 C382.4811,97.7024692 382.648743,98.1096025 382.552945,98.6364887 C382.74454,99.2112736 382.888234,100.133311 382.984032,101.402627 C383.079829,102.671944 383.139702,104.132834 383.163651,105.785341 C383.187601,107.437847 383.21155,109.222049 383.235499,111.137999 C383.259448,113.053949 383.283397,114.933946 383.307347,116.778048 C383.331296,118.62215 383.391169,120.346479 383.486966,121.951087 C383.582764,123.555695 383.750407,124.884865 383.9899,125.938637 C385.331065,125.84284 386.827879,125.723095 388.480385,125.579398 C390.132892,125.435702 391.797349,125.220161 393.473805,124.932769 C395.150261,124.645376 396.790768,124.262192 398.395376,123.783204 C399.999984,123.304217 401.424951,122.669568 402.670318,121.879239 C403.915685,121.08891 404.933518,120.118974 405.723848,118.969405 C406.514177,117.819835 406.957234,116.430792 407.053031,114.802235 C407.053031,113.125778 406.621949,111.497245 405.759772,109.916587 C404.897594,108.335928 403.760016,106.839115 402.347003,105.426102 C400.93399,104.013089 399.317432,102.707868 397.497279,101.510399 C395.677127,100.31293 393.821078,99.2831228 391.929078,98.4209454 C390.037077,97.558768 388.193003,96.8881956 386.3968,96.4092081 C384.600597,95.9302207 383.007988,95.6907305 381.618924,95.6907305 C379.367683,95.6907305 377.571507,96.0379912 376.230342,96.732523 C374.889178,97.4270548 373.883319,98.4089644 373.212737,99.6782812 C372.542154,100.947598 372.123046,102.46836 371.955401,104.240614 C371.787755,106.012867 371.727883,107.976687 371.775781,110.13213 C371.727883,110.13213 371.66801,110.144105 371.596162,110.168054 C371.524314,110.192003 371.464441,110.203978 371.416543,110.203978 C370.650163,110.203978 370.051437,109.880666 369.620349,109.234033 C369.18926,108.5874 368.865948,107.809057 368.650404,106.898981 C368.434859,105.988905 368.291165,105.078842 368.219317,104.168766 C368.147469,103.25869 368.111546,102.54022 368.111546,102.013333 C368.111546,100.720067 368.351036,99.4747185 368.830023,98.2772499 C369.309011,97.0797812 369.979583,96.0260246 370.841761,95.1159484 C371.703938,94.2058723 372.709797,93.4754274 373.859366,92.9245918 C375.008936,92.3737562 376.254285,92.0983426 377.59545,92.0983426 C381.475248,92.1462413 385.414861,92.7569411 389.414406,93.9304604 C393.413952,95.1039797 397.066176,96.7085636 400.37119,98.7442603 C403.676203,100.779957 406.418365,103.162884 408.597758,105.893112 C410.777151,108.623341 411.938678,111.593019 412.082374,114.802235 C412.082374,117.005577 411.627343,118.933472 410.717267,120.585979 C409.807191,122.238486 408.585791,123.663452 407.053031,124.860921 C405.520271,126.058389 403.771993,127.028325 401.808145,127.770755 C399.844296,128.513186 397.832579,129.087962 395.772933,129.495101 C393.713287,129.902241 391.653672,130.153705 389.594026,130.249503 C387.53438,130.3453 385.666357,130.3453 383.9899,130.249503 C383.606711,130.584794 383.343271,131.387086 383.199575,132.656403 C383.055879,133.925719 382.972057,135.506354 382.948108,137.398355 C382.924159,139.290355 382.924159,141.385894 382.948108,143.685034 C382.972057,145.984174 382.972057,148.307228 382.948108,150.654266 C382.924159,153.001305 382.852312,155.288436 382.732565,157.515727 C382.612818,159.743019 382.397277,161.706838 382.085935,163.407244 C381.774593,165.107649 381.331536,166.484718 380.756751,167.53849 C380.181966,168.592262 379.439547,169.119141 378.529471,169.119141 Z M411.651288,102.157029 C412.32187,102.157029 412.968494,102.24085 413.591177,102.408496 C414.213861,102.576142 414.84851,102.743785 415.495143,102.91143 L417.435032,103.414365 C418.081666,103.58201 418.740263,103.665832 419.410846,103.665832 C419.746137,103.665832 420.129321,103.270673 420.56041,102.480344 C420.991499,101.690014 421.530352,100.708105 422.176985,99.5345857 C422.823618,98.3610664 423.613935,97.0917687 424.547961,95.7266544 C425.481986,94.3615401 426.595615,93.0922424 427.888881,91.9187232 C429.182148,90.7452039 430.690935,89.7632943 432.41529,88.972965 C434.139645,88.1826357 436.127413,87.787477 438.378654,87.787477 C439.384528,87.787477 440.354463,87.9910436 441.288489,88.3981829 C442.222514,88.8053223 443.036781,89.3561496 443.731312,90.0506814 C444.425844,90.7452132 444.976672,91.5355307 445.383811,92.4216575 C445.79095,93.3077843 445.994517,94.2298213 445.994517,95.1877962 C445.994517,97.3432398 445.671205,99.1034923 445.024572,100.468607 C444.377939,101.833721 443.5038,102.923401 442.402129,103.73768 C441.300458,104.551958 440.019185,105.162658 438.558274,105.569797 C437.097362,105.976937 435.528702,106.300248 433.852246,106.539742 C432.175789,106.779236 430.439486,107.006752 428.643283,107.222296 C426.84708,107.43784 425.086827,107.761152 423.362473,108.192241 C422.739789,110.635077 422.632018,112.958131 423.039158,115.161473 C423.446297,117.364816 424.200691,119.292711 425.302362,120.945218 C426.404033,122.597725 427.769127,123.902946 429.397684,124.860921 C431.026242,125.818896 432.726622,126.309851 434.498875,126.3338 C436.271129,126.357749 438.031381,125.830871 439.779686,124.753149 C441.52799,123.675427 443.09665,121.915175 444.485714,119.472339 C444.916803,119.472339 445.240114,119.604058 445.455659,119.867502 C445.671203,120.130945 445.814897,120.442282 445.886745,120.801522 C445.958593,121.160763 445.994517,121.543947 445.994517,121.951087 C445.994517,122.358226 445.970568,122.729436 445.922669,123.064727 C443.719327,126.082348 441.480094,128.153938 439.204904,129.279558 C436.929713,130.405179 434.738378,130.836261 432.630834,130.572818 C430.523289,130.309375 428.55947,129.459185 426.739317,128.022222 C424.919165,126.58526 423.33853,124.801058 421.997365,122.669564 C420.6562,120.53807 419.614418,118.191067 418.871988,115.628484 C418.129557,113.065901 417.806245,110.515331 417.902043,107.976697 C417.327258,107.401912 416.680635,106.994779 415.962153,106.755285 C415.243672,106.515792 414.561125,106.252353 413.914492,105.96496 C413.267859,105.677568 412.729006,105.25846 412.297918,104.707624 C411.866829,104.156789 411.651288,103.306599 411.651288,102.157029 Z M437.588329,92.8168201 C435.480784,92.9605164 433.672634,93.4275222 432.163823,94.2178515 C430.655013,95.0081808 429.397689,95.9661413 428.391816,97.0917618 C427.385942,98.2173824 426.595625,99.390884 426.02084,100.612302 C425.446055,101.83372 425.038922,102.947349 424.799428,103.953223 C424.751529,103.809527 425.134713,103.713731 425.948992,103.665832 C426.763271,103.617933 427.793078,103.510163 429.038446,103.342517 C430.283813,103.174871 431.636932,102.95933 433.097844,102.695887 C434.558756,102.432444 435.947799,102.025311 437.265014,101.474475 C438.58223,100.92364 439.719808,100.217144 440.677783,99.3549663 C441.635758,98.4927888 442.210534,97.3911342 442.402129,96.0499693 C442.402129,95.4272856 442.24646,94.9123818 441.935118,94.5052425 C441.623777,94.0981032 441.228618,93.7747915 440.74963,93.5352977 C440.270643,93.295804 439.743765,93.1161864 439.16898,92.9964395 C438.594195,92.8766927 438.067316,92.8168201 437.588329,92.8168201 Z M478.541552,113.868214 C477.631476,114.586695 476.577719,115.484783 475.38025,116.562505 C474.182782,117.640226 472.949408,118.76583 471.680091,119.939349 C470.410774,121.112869 469.129502,122.262421 467.836236,123.388042 C466.54297,124.513662 465.285646,125.519521 464.064228,126.405648 C462.84281,127.291774 461.729181,127.986296 460.723308,128.489233 C459.717434,128.99217 458.855269,129.195736 458.136788,129.099939 C455.454458,128.189862 453.430767,126.848718 452.065653,125.076464 C450.700538,123.304211 449.886272,121.292493 449.622829,119.041252 C449.359386,116.790011 449.562952,114.383135 450.233535,111.820553 C450.904117,109.25797 451.933925,106.743323 453.322988,104.276538 C454.712052,101.809752 456.400457,99.4747235 458.388255,97.2713812 C460.376053,95.0680389 462.51949,93.1880414 464.81863,91.6313321 C467.11777,90.0746229 469.53662,88.9370447 472.075254,88.2185635 C474.613887,87.5000824 477.128533,87.3803373 479.619268,87.8593248 C479.810863,87.8593248 480.002455,87.7635287 480.19405,87.5719337 C480.385645,87.3803387 480.529339,86.7097663 480.625137,85.5601964 C480.720934,84.4106266 480.804756,82.6144505 480.876604,80.1716145 C480.948452,77.7287785 480.984376,74.2801205 480.984376,69.8255371 C480.984376,69.1549547 481.116095,68.4963568 481.379538,67.8497238 C481.642981,67.2030907 482.014191,66.6762124 482.493179,66.2690731 C482.972166,65.8619337 483.511019,65.6344181 484.109753,65.5865193 C484.708488,65.5386206 485.343136,65.7541617 486.013719,66.2331492 C485.917921,67.957504 485.774227,69.5740624 485.582632,71.0828729 C485.391037,72.5916834 485.21142,74.1483693 485.043774,75.7529773 C484.876128,77.3575853 484.72046,79.0699398 484.576764,80.8900921 C484.433067,82.7102444 484.337271,84.7938086 484.289373,87.1408472 C485.199449,87.5240371 485.7862,88.0149919 486.049643,88.6137262 C486.313086,89.2124605 486.384933,89.8471094 486.265186,90.5176918 C486.145439,91.1882743 485.893974,91.8588467 485.510785,92.5294291 C485.127595,93.2000116 484.720461,93.7987369 484.289373,94.3256231 C484.049879,97.3432441 483.834338,100.492539 483.642743,103.773603 C483.451148,107.054668 483.307454,110.347657 483.211656,113.65267 C483.115859,116.957684 483.055986,120.250673 483.032037,123.531737 C483.008087,126.812801 483.044011,129.986046 483.139808,133.051565 C482.852416,133.865844 482.445283,134.524442 481.918397,135.027379 C481.39151,135.530316 480.864632,135.805729 480.337746,135.853628 C479.81086,135.901527 479.331879,135.709935 478.900791,135.278846 C478.469702,134.847757 478.206263,134.105338 478.110465,133.051565 L478.541552,113.868214 Z M479.116334,92.6012769 C477.966764,91.6912007 476.613645,91.3319655 475.056936,91.5235605 C473.500226,91.7151555 471.859719,92.2779573 470.135364,93.2119828 C468.411009,94.1460084 466.68668,95.3913571 464.962325,96.9480663 C463.23797,98.5047756 461.645361,100.229105 460.184449,102.121105 C458.723538,104.013105 457.45424,106.000874 456.376518,108.084469 C455.298796,110.168064 454.568351,112.191756 454.185161,114.155605 C453.801971,116.119453 453.801971,117.951553 454.185161,119.651958 C454.568351,121.352364 455.502363,122.77733 456.987224,123.9269 C457.657806,124.31009 458.519971,124.274166 459.573743,123.819128 C460.627516,123.36409 461.777068,122.657594 463.022436,121.699619 C464.267803,120.741645 465.596973,119.592092 467.009986,118.250927 C468.422999,116.909762 469.812042,115.520719 471.177157,114.083757 C472.542271,112.646795 473.859467,111.257752 475.128783,109.916587 C476.3981,108.575422 477.535678,107.40192 478.541552,106.396047 C478.924742,104.767489 479.164232,103.534115 479.260029,102.695887 C479.355827,101.857659 479.39175,101.055367 479.367801,100.288987 C479.343852,99.5226072 479.295954,98.5885957 479.224106,97.4869245 C479.152257,96.3852534 479.116334,94.7567204 479.116334,92.6012769 Z M491.474149,85.991283 C491.857339,84.4106244 492.384217,83.5843834 493.054799,83.5125353 C493.725382,83.4406872 494.360031,83.7520244 494.958765,84.4465562 C495.557499,85.141088 496.01253,86.0272015 496.323872,87.1049233 C496.635214,88.1826451 496.62324,89.032835 496.287948,89.6555187 C496.431645,90.9966836 496.443619,92.6970636 496.323872,94.7567097 C496.204125,96.8163557 496.048457,99.0076905 495.856862,101.33078 C495.665267,103.653869 495.485649,106.012847 495.318004,108.407784 C495.150358,110.802721 495.066537,113.029979 495.066537,115.089626 C495.066537,117.149272 495.198256,118.921499 495.461699,120.40636 C495.725142,121.891221 496.180174,122.897079 496.826807,123.423966 C497.47344,123.950852 498.383502,123.86703 499.557021,123.172498 C500.730541,122.477967 502.227354,120.981153 504.047506,118.682014 C505.101279,119.496292 505.544336,120.502151 505.37669,121.699619 C505.209044,122.897088 504.730064,124.082564 503.939735,125.256084 C503.149405,126.429603 502.17947,127.483359 501.029901,128.417385 C499.880331,129.35141 498.850523,129.96211 497.940447,130.249503 C496.120295,130.632693 494.719277,130.321356 493.737353,129.315482 C492.755429,128.309608 492.013009,127.004387 491.510072,125.399779 C491.007136,123.795171 490.707773,122.11874 490.611975,120.370436 C490.516178,118.622132 490.46828,117.221114 490.46828,116.167342 L491.474149,85.991283 Z M492.551865,67.7419521 C492.551865,66.9276734 492.767406,66.233152 493.198495,65.6583671 C493.629583,65.0835821 494.252258,64.796194 495.066537,64.796194 C495.401828,64.796194 495.820935,64.8321175 496.323872,64.9039656 C496.826809,64.9758137 497.329738,65.0955588 497.832675,65.2632044 C498.335612,65.43085 498.766694,65.6583657 499.125935,65.9457581 C499.485176,66.2331506 499.712691,66.5923858 499.808489,67.0234745 C500.047982,68.6041331 499.85639,69.7536858 499.233707,70.472167 C498.611023,71.1906482 497.856629,71.5498834 496.970502,71.5498834 C496.084375,71.5498834 495.198262,71.2145972 494.312135,70.5440147 C493.426008,69.8734323 492.839257,68.9394208 492.551865,67.7419521 Z M541.480189,98.7083364 C540.66591,100.384793 539.660052,102.288739 538.462583,104.420233 C537.265115,106.551727 535.947919,108.731088 534.510956,110.958379 C533.073994,113.185671 531.553232,115.365031 529.948624,117.496526 C528.344016,119.62802 526.703508,121.531966 525.027052,123.208422 C523.350596,124.884878 521.68614,126.249972 520.033633,127.303745 C518.381126,128.357517 516.776542,128.89637 515.219833,128.920319 C513.663124,128.944269 512.214208,128.357518 510.873044,127.160049 C509.531879,125.96258 508.334428,123.998761 507.280656,121.268533 C506.801668,116.574456 506.99326,112.479174 507.855438,108.982566 C508.717615,105.485958 510.010862,102.492331 511.735217,100.001596 C513.459572,97.5108613 515.531161,95.4512461 517.950048,93.8226888 C520.368935,92.1941314 522.90753,90.9008847 525.56591,89.9429098 C528.224291,88.9849349 530.90658,88.3143625 533.612859,87.9311725 C536.319139,87.5479825 538.845759,87.3563904 541.192798,87.3563904 C541.384393,87.2605929 541.707705,87.1887459 542.162743,87.1408472 C542.617781,87.0929484 543.048863,87.0929484 543.456002,87.1408472 C543.863142,87.1887459 544.210402,87.3204655 544.497795,87.5360098 C544.785187,87.7515542 544.880983,88.0509169 544.785186,88.4341068 L546.868771,128.237766 C546.964569,128.81255 546.868772,129.291531 546.58138,129.674721 C546.293988,130.057911 545.910803,130.297401 545.431816,130.393198 C544.952828,130.488996 544.402001,130.417149 543.779317,130.177655 C543.156634,129.938161 542.533959,129.48313 541.911276,128.812548 L541.480189,98.7083364 Z M541.049103,92.6012769 C539.276849,91.9306944 537.384877,91.6672553 535.37313,91.8109515 C533.361382,91.9546478 531.337691,92.4216535 529.301994,93.2119828 C527.266297,94.0023121 525.278529,95.0560687 523.33863,96.3732842 C521.398731,97.6904997 519.614529,99.1753386 517.985972,100.827845 C516.357414,102.480352 514.944423,104.252579 513.746954,106.14458 C512.549485,108.03658 511.699295,109.964476 511.196358,111.928324 C510.693422,113.892173 510.585651,115.820068 510.873044,117.712069 C511.160436,119.604069 511.950753,121.364322 513.24402,122.992879 C514.058298,124.09455 515.2318,124.322066 516.76456,123.675433 C518.29732,123.0288 519.9977,121.819375 521.865751,120.047121 C523.733802,118.274867 525.685646,116.119456 527.721343,113.580823 C529.75704,111.042189 531.672961,108.46767 533.469164,105.857188 C535.265367,103.246707 536.834027,100.756009 538.175192,98.3850215 C539.516357,96.0140336 540.474318,94.086138 541.049103,92.6012769 Z" id="Subspedia"></path>
        </g>
    </g>
</svg>